# xmcd CD database file
#
# Track frame offsets:
#	150
#	10849
#	34951
#	56147
#	72642
#	84894
#	102299
#	110891
#	133879
#	148913
#	168115
#	185469
#
# Disc length: 2579 seconds
#
# Revision: 1
# Processed by: cddbd v1.5.1PL0 Copyright (c) Steve Scherf et al.
# Submitted via: CDex 1.51
#
DISCID=b00a110c
DTITLE=Gerstle, Gerhard - Double Steps
DYEAR=2003
DGENRE=Jazz
TTITLE0=Here Comes The Sun
TTITLE1=Willow Weep For Me
TTITLE2=Black Orpheus
TTITLE3=Sir Duke
TTITLE4=An I Love Her
TTITLE5=Sunny Afternoon
TTITLE6=Four On Six
TTITLE7=Peace
TTITLE8=Lady Madonna
TTITLE9=All Blues
TTITLE10=Pink Panther
TTITLE11=Wond'ring Aloud
EXTD=YEAR: 2003
EXTT0=
EXTT1=
EXTT2=
EXTT3=
EXTT4=
EXTT5=
EXTT6=
EXTT7=
EXTT8=
EXTT9=
EXTT10=
EXTT11=
PLAYORDER=
